<?xml version="1.0" encoding="UTF-8"?>
<svg id="Warstwa_2" data-name="Warstwa 2" xmlns="http://www.w3.org/2000/svg" viewBox="0 0 345.28 298.04">
  <defs>
    <style>
      .cls-1, .cls-2 {
        stroke-width: 6px;
      }

      .cls-1, .cls-2, .cls-3 {
        stroke: #5a189a;
        stroke-miterlimit: 10;
      }

      .cls-1, .cls-3 {
        fill: #7b2cbf;
      }

      .cls-2 {
        fill: #9d4edd;
      }

      .cls-3 {
        stroke-width: 10px;
      }
    </style>
  </defs>
  <circle class="cls-3" cx="172.7" cy="147.73" r="123"/>
  <g>
    <ellipse class="cls-2" cx="172.7" cy="15.43" rx="30.46" ry="9.69"/>
    <path class="cls-2" d="M142.24,48.66v1.38c0,5.36,13.64,9.69,30.46,9.69s30.46-4.33,30.46-9.69v-1.38s0-33.23,0-33.23c0,5.36-13.64,9.69-30.46,9.69-16.82,0-30.46-4.33-30.46-9.69v33.23Z"/>
  </g>
  <g>
    <ellipse class="cls-2" cx="32.39" cy="154.73" rx="9.69" ry="30.46"/>
    <path class="cls-2" d="M65.62,185.19h1.38c5.36,0,9.69-13.64,9.69-30.46,0-16.82-4.33-30.46-9.69-30.46h-1.38s-33.23,0-33.23,0c5.36,0,9.69,13.64,9.69,30.46,0,16.82-4.33,30.46-9.69,30.46h33.23Z"/>
  </g>
  <g>
    <ellipse class="cls-1" cx="313.01" cy="154.73" rx="9.69" ry="30.46"/>
    <path class="cls-1" d="M279.78,124.27h-1.38c-5.36,0-9.69,13.64-9.69,30.46,0,16.82,4.33,30.46,9.69,30.46h1.38s33.23,0,33.23,0c-5.36,0-9.69-13.64-9.69-30.46,0-16.82,4.33-30.46,9.69-30.46h-33.23Z"/>
  </g>
  <g>
    <ellipse class="cls-1" cx="263.61" cy="62.59" rx="8.56" ry="26.91" transform="translate(32.95 204.73) rotate(-45)"/>
    <path class="cls-1" d="M223.82,64.32l-.86.86c-3.35,3.35,2.46,14.57,12.97,25.08,10.51,10.51,21.74,16.32,25.08,12.97l.86-.86,20.76-20.76c-3.35,3.35-14.57-2.46-25.08-12.97-10.51-10.51-16.32-21.74-12.97-25.08l-20.76,20.76Z"/>
  </g>
  <g>
    <ellipse class="cls-1" cx="263.49" cy="244.69" rx="26.91" ry="8.56" transform="translate(-95.85 257.99) rotate(-45)"/>
    <path class="cls-1" d="M261.76,204.91l-.86-.86c-3.35-3.35-14.57,2.46-25.08,12.97-10.51,10.51-16.32,21.74-12.97,25.08l.86.86,20.76,20.76c-3.35-3.35,2.46-14.57,12.97-25.08,10.51-10.51,21.74-16.32,25.08-12.97l-20.76-20.76Z"/>
  </g>
  <g>
    <ellipse class="cls-2" cx="81.44" cy="244.76" rx="8.56" ry="26.91" transform="translate(-149.22 129.28) rotate(-45)"/>
    <path class="cls-2" d="M121.23,243.03l.86-.86c3.35-3.35-2.46-14.57-12.97-25.08-10.51-10.51-21.74-16.32-25.08-12.97l-.86.86-20.76,20.76c3.35-3.35,14.57,2.46,25.08,12.97s16.32,21.74,12.97,25.08l20.76-20.76Z"/>
  </g>
  <g>
    <ellipse class="cls-2" cx="81.44" cy="63.14" rx="26.91" ry="8.56" transform="translate(-20.79 76.08) rotate(-45)"/>
    <path class="cls-2" d="M83.17,102.92l.86.86c3.35,3.35,14.57-2.46,25.08-12.97,10.51-10.51,16.32-21.74,12.97-25.08l-.86-.86-20.76-20.76c3.35,3.35-2.46,14.57-12.97,25.08s-21.74,16.32-25.08,12.97l20.76,20.76Z"/>
  </g>
  <g>
    <ellipse class="cls-1" cx="173.7" cy="281.04" rx="30.46" ry="9.69"/>
    <path class="cls-1" d="M204.16,247.81v-1.38c0-5.36-13.64-9.69-30.46-9.69-16.82,0-30.46,4.33-30.46,9.69v1.38s0,33.23,0,33.23c0-5.36,13.64-9.69,30.46-9.69,16.82,0,30.46,4.33,30.46,9.69v-33.23Z"/>
  </g>
  <circle class="cls-1" cx="173.2" cy="154.23" r="38"/>
</svg>