<?xml version="1.0" encoding="UTF-8"?>
<svg id="Warstwa_2" data-name="Warstwa 2" xmlns="http://www.w3.org/2000/svg" viewBox="0 0 256 307.57">
  <defs>
    <style>
      .cls-1 {
        fill: #495057;
      }

      .cls-1, .cls-2 {
        stroke: #343a40;
      }

      .cls-1, .cls-2, .cls-3 {
        stroke-width: 10px;
      }

      .cls-1, .cls-2, .cls-3, .cls-4 {
        stroke-miterlimit: 10;
      }

      .cls-2, .cls-3 {
        fill: none;
      }

      .cls-3, .cls-5, .cls-4 {
        stroke-linecap: round;
      }

      .cls-3, .cls-4 {
        stroke: #6c757d;
      }

      .cls-5 {
        fill: #fbb03b;
        stroke: #f15a24;
        stroke-linejoin: round;
        stroke-width: 5px;
      }

      .cls-4 {
        fill: #b3b3b3;
        stroke-width: 4px;
      }
    </style>
  </defs>
  <path class="cls-1" d="M251,179.57c0,67.93-55.07,123-123,123S5,247.5,5,179.57s55.07-107,123-107,123,39.07,123,107Z"/>
  <path class="cls-1" d="M175,65.04c0,3.23-6.55,6.11-16.85,8.03-8.16,1.53-18.67,2.44-30.15,2.44s-21.99-.91-30.15-2.44c-10.3-1.92-16.85-4.8-16.85-8.03,0-.24.03-.47.11-.7,1.61-5.46,21.99-9.77,46.89-9.77s45.28,4.31,46.89,9.77c.08.23.11.46.11.7Z"/>
  <path class="cls-3" d="M127,62.57s-8-10,5-17c27.57-14.85,51.84,8.66,48.5-7.8-.67-3.31-2.88-5.97-5.65-7.91-1.84-1.29-6.84-5.29-11.84-7.29"/>
  <path class="cls-2" d="M81.11,64.34c-.08.23-.11.46-.11.7"/>
  <path class="cls-2" d="M175,65.04c0-.24-.03-.47-.11-.7"/>
  <path class="cls-1" d="M175,65.04v16.06c0,1.49-1.39,2.9-3.91,4.19-7.25,3.69-23.81,6.28-43.09,6.28s-35.84-2.59-43.09-6.28c-2.52-1.28-3.91-2.7-3.91-4.19v-16.06c0,3.23,6.55,6.11,16.85,8.03,8.16,1.53,18.67,2.44,30.15,2.44s21.99-.91,30.15-2.44c10.3-1.92,16.85-4.8,16.85-8.03Z"/>
  <path class="cls-1" d="M81,81.1c0,1.49,1.39,2.9,3.91,4.19"/>
  <path class="cls-1" d="M171.09,85.29c2.52-1.28,3.91-2.7,3.91-4.19"/>
  <path class="cls-4" d="M175.43,151.16c-.51-21.79-4.64-35.28-40.08-37.28-23.43-1.32-43.44,12.56-44.72,31.56-.22,3.25.25,6.34,1.3,9.23-.14-.05-.27-.1-.41-.15,0,0-9.52,7.38-8.72,10.44.45,1.74,4.37,5.36,9.9,7.91-2.1,1.55-4.19,3.33-5.82,4.77-1.89,1.68-3.52,4.13-1.83,6.01.39.43.93,1.12,1.41,1.66.25.28.66.32.96.1l1.15-.81c.87-.45,6.93-3.98,6.44,3.86-.05.74.19,1.36.08,1.92-.05.26.1.53.33.66,1.02.58,1.52.86,2.62,1.34.26.11.56.04.73-.18l1.1-1.38c.8-1.11,5.92-5.58,7.16,1.95.18,1.09.36,1.41.53,2.66.03.22.08.44.3.5,1.42.38,3.75,1.13,4.79,1.48.29.09.62-.04.72-.32.89-2.34,4.77-9.2,7.99-1.96.56,1.25.55,1.98.54,2.99,0,.03.02.05.05.05,7.9.44,13.97-.64,14.7-2.43.72-1.77.45-4.76-.18-7.81,6.04,3.17,12.18,4.03,13.95,3.18,2.85-1.37,2.32-13.4,2.32-13.4-.53-.31-1.05-.6-1.56-.88,15.79-4.16,24.51-15.19,24.27-25.66ZM108.15,153.14c-6.78-3.46-9.24-11.65-1.92-16.17,0,0,12.51-7.17,13.77,3.93,1.26,11.11-5.07,15.69-11.85,12.23ZM115.79,181.03c-1.12-.78-1.53-1.99-1.67-2.86-.08-.51-.6-.81-1.08-.64-1.5.54-4.11,1.1-3.91-1.76.22-3.26,5.15-6.87,6.9-7.35.44-.12.9-.04,1.27.23,3.87,2.86.32,13.65-1.5,12.39ZM133.69,160.88c-6.48-4-9.24-11.65-1.92-16.17,0,0,9.79-8.25,15.96,1.08,9.3,14.05-6.04,20.03-14.05,15.09Z"/>
  <path class="cls-4" d="M79.43,202.7l74.81,32.43c.34.15.72.06.95-.23,1.24-1.58,5.49-6.3,10.01-3.51,5.37,3.32-1.32,27.48-11.48,24.2,0,0-6.45-2.91-4.56-7.23,1.69-3.88-61.15-30.58-74.16-36.06-1.26-.53-2.68.02-3.27,1.25-1.54,3.22-4.91,8.28-9.31,3.51-6.11-6.63,3-24.53,10.4-23.78,5.43.55,5.67,5.03,5.42,7.38-.1.87.4,1.7,1.2,2.05Z"/>
  <path class="cls-4" d="M81.47,232.17l78.08-23.47c.35-.11.59-.42.58-.79-.07-2.01.13-8.36,5.38-9.14,6.25-.93,16.71,21.85,6.84,25.89,0,0-6.81,1.94-8.15-2.58-1.21-4.06-66.45,16.07-79.93,20.28-1.3.41-2.03,1.74-1.69,3.06.9,3.46,1.59,9.5-4.85,8.69-8.95-1.13-13.53-20.67-7.39-24.88,4.5-3.09,7.58.18,8.9,2.14.49.73,1.4,1.04,2.24.79Z"/>
  <path class="cls-5" d="M142.48,18.53l-10.23-5.74c-1.21-.68-.71-2.23.71-2.22l15.77.1c.49,0,.94-.21,1.19-.56l4.99-7.05c.62-.88,2.21-.69,2.61.32l3.45,8.75c.18.45.64.78,1.18.86l12.82,1.86c1.44.21,1.73,1.87.41,2.33l-12.9,4.49c-.73.26-1.05.98-.7,1.61l3.59,6.43c.59,1.06-.69,2.09-1.92,1.55l-10.46-4.59c-.37-.16-.8-.19-1.18-.06l-11.4,3.68c-1.2.39-2.41-.69-1.89-1.68l4.51-8.54c.29-.54.05-1.2-.56-1.54Z"/>
</svg>
